<svg width="22" height="25" viewBox="0 0 22 25" fill="none" xmlns="http://www.w3.org/2000/svg">
<path d="M11.0594 2.45565e-05C9.98679 -0.00360857 8.95202 0.396017 8.1603 1.11964C7.36859 1.84326 6.87776 2.83801 6.78517 3.9066H5.42393C4.18522 3.9066 3.27723 4.86626 3.08825 6.16993L0.709758 22.6245C0.522254 23.9193 1.72848 25.0015 3.04839 25.0015H19.0526C20.3814 25.0015 21.5743 23.9178 21.3883 22.6245L19.0113 6.16993C18.8297 4.91351 17.9498 3.9066 16.6756 3.9066H15.3321C15.2395 2.83801 14.7487 1.84326 13.957 1.11964C13.1652 0.396017 12.1305 -0.00360857 11.0579 2.45565e-05H11.0594ZM11.0594 0.781044C12.8872 0.781044 14.3813 2.14967 14.5526 3.9066H7.56619C7.65575 3.04475 8.06323 2.24719 8.7091 1.66956C9.35498 1.09193 10.1929 0.7742 11.0594 0.781044ZM5.42393 4.68909H16.6756C17.6102 4.68909 18.1255 5.48931 18.2391 6.28066L20.6162 22.7367C20.7343 23.5546 19.8883 24.219 19.0512 24.219H3.04691C2.21274 24.219 1.36676 23.5591 1.48487 22.7367L3.86336 6.28066C3.98738 5.41253 4.54103 4.68909 5.42393 4.68909ZM14.5703 7.81169C14.5703 9.72955 13.0053 11.2813 11.0594 11.2813C9.11347 11.2813 7.54848 9.72955 7.54848 7.81022C7.54848 7.29052 6.76746 7.28757 6.76746 7.81022C6.76746 10.1548 8.69564 12.0608 11.0594 12.0608C13.4216 12.0608 15.3498 10.1548 15.3498 7.80874C15.3498 7.29052 14.5703 7.29052 14.5703 7.80874V7.81169Z" fill="#333333"/>
</svg>
