<svg width="84" height="24" viewBox="0 0 84 24" fill="none" xmlns="http://www.w3.org/2000/svg">
<path fill-rule="evenodd" clip-rule="evenodd" d="M13.472 17.9213H9.84372C4.18425 17.9213 8.29588 6.0061 13.0606 6.0061H18.793C19.7119 6.0061 21.3324 6.17365 22.1307 3.9203L23.3643 0.419952H15.5035C11.2466 0.419952 7.93301 1.90622 5.53861 4.39986C1.40254 8.6673 -1.45435e-05 15.3322 0.991485 18.5205C1.93479 21.4696 4.49857 23.4113 8.51346 23.4592L11.6336 23.4834H15.4794L16.4227 20.6784C17.124 18.6884 15.5517 17.9213 13.472 17.9213ZM57.6364 12.9827L58.8217 9.17065H46.1722C44.068 9.17065 43.1247 9.74605 42.7619 10.9448L41.5765 14.7568H54.2264C56.3306 14.7568 57.2739 14.1814 57.6364 12.9827ZM39.6903 19.6955L38.505 23.5071H51.1545C53.2346 23.5071 54.202 22.9321 54.5648 21.7333L55.7502 17.9213H43.1003C41.0205 17.9213 40.0772 18.4967 39.6903 19.6955ZM60.5875 4.25575L61.7725 0.444083H49.123C47.0188 0.444083 46.0755 1.01915 45.7126 2.21788L44.5273 6.02989H57.1772C59.2573 6.02989 60.2002 5.45448 60.5875 4.25575ZM41.4798 5.02319C40.9479 1.47492 39.0372 0.444083 34.3933 0.444083H25.9281L20.994 14.7568H24.1141C25.9762 14.7568 26.9195 14.7806 27.9114 12.1435L29.967 6.0061H33.1113C35.7962 6.0061 35.1913 9.33854 33.837 12.5748C32.6276 15.428 30.5234 17.9451 27.9837 17.9451H22.7353C20.6311 17.9451 19.6637 18.5205 19.2767 19.7193L17.9706 23.5313H21.8161L25.5893 23.5071C28.927 23.4834 31.6602 23.2437 34.8529 20.3905C38.2388 17.3459 42.1573 9.53023 41.4798 5.02319ZM84 0.419952H76.6715L69.7782 7.68405C68.9801 8.52319 68.1577 9.36234 67.3597 10.3452H67.287L70.7215 0.419952H64.7473L56.6935 23.5071H62.6673L65.231 16.2431L67.8916 14.0135L69.9961 20.5825C70.6488 22.6204 71.3264 23.5071 72.7775 23.5071H77.3487L72.6566 10.609L84 0.419952Z" fill="#00B33C"/>
</svg>
